<svg width="88" height="70" viewBox="0 0 88 70" fill="none" xmlns="http://www.w3.org/2000/svg">
<path d="M6.5 32H44V38.25H6.5V32ZM0.25 16.375H31.5V22.625H0.25V16.375Z" fill="url(#paint0_linear_206_246)"/>
<path d="M87.4968 33.8938L78.1218 12.0188C77.8812 11.4565 77.4808 10.9773 76.9703 10.6406C76.4597 10.304 75.8615 10.1247 75.2499 10.125H65.8749V3.875C65.8749 3.0462 65.5457 2.25134 64.9597 1.66529C64.3736 1.07924 63.5787 0.75 62.7499 0.75H12.7499V7H59.6249V46.2375C58.201 47.0644 56.9548 48.1649 55.9583 49.4758C54.9617 50.7866 54.2346 52.2818 53.8187 53.875H34.1812C33.4206 50.9292 31.6117 48.3619 29.0937 46.6544C26.5756 44.9468 23.5212 44.2163 20.5031 44.5996C17.4849 44.983 14.7102 46.4539 12.6989 48.7368C10.6877 51.0196 9.57812 53.9576 9.57812 57C9.57812 60.0424 10.6877 62.9804 12.6989 65.2632C14.7102 67.5461 17.4849 69.017 20.5031 69.4004C23.5212 69.7837 26.5756 69.0532 29.0937 67.3456C31.6117 65.6381 33.4206 63.0708 34.1812 60.125H53.8187C54.4985 62.807 56.0532 65.1857 58.2367 66.8849C60.4203 68.5841 63.1081 69.5066 65.8749 69.5066C68.6418 69.5066 71.3296 68.5841 73.5131 66.8849C75.6967 65.1857 77.2514 62.807 77.9312 60.125H84.6249C85.4537 60.125 86.2486 59.7958 86.8347 59.2097C87.4207 58.6237 87.7499 57.8288 87.7499 57V35.125C87.7501 34.7016 87.664 34.2827 87.4968 33.8938ZM22.1249 63.25C20.8888 63.25 19.6804 62.8834 18.6526 62.1967C17.6248 61.5099 16.8237 60.5338 16.3507 59.3918C15.8777 58.2497 15.7539 56.9931 15.995 55.7807C16.2362 54.5683 16.8315 53.4547 17.7055 52.5806C18.5796 51.7065 19.6933 51.1112 20.9056 50.8701C22.118 50.6289 23.3747 50.7527 24.5167 51.2258C25.6588 51.6988 26.6349 52.4999 27.3216 53.5277C28.0084 54.5555 28.3749 55.7639 28.3749 57C28.3733 58.6571 27.7143 60.2458 26.5425 61.4176C25.3708 62.5893 23.782 63.2483 22.1249 63.25ZM65.8749 16.375H73.1874L79.8874 32H65.8749V16.375ZM65.8749 63.25C64.6388 63.25 63.4304 62.8834 62.4026 62.1967C61.3748 61.5099 60.5737 60.5338 60.1007 59.3918C59.6277 58.2497 59.5039 56.9931 59.745 55.7807C59.9862 54.5683 60.5814 53.4547 61.4555 52.5806C62.3296 51.7065 63.4432 51.1112 64.6556 50.8701C65.868 50.6289 67.1247 50.7527 68.2667 51.2258C69.4088 51.6988 70.3849 52.4999 71.0716 53.5277C71.7584 54.5555 72.1249 55.7639 72.1249 57C72.1233 58.6571 71.4643 60.2458 70.2925 61.4176C69.1208 62.5893 67.532 63.2483 65.8749 63.25ZM81.4999 53.875H77.9312C77.2428 51.1982 75.6857 48.8256 73.5038 47.1289C71.322 45.4323 68.6388 44.5077 65.8749 44.5V38.25H81.4999V53.875Z" fill="url(#paint1_linear_206_246)"/>
<defs>
<linearGradient id="paint0_linear_206_246" x1="0.25" y1="16.375" x2="44" y2="16.375" gradientUnits="userSpaceOnUse">
<stop stop-color="#F6AD25"/>
<stop offset="0.166667" stop-color="#EE971D"/>
<stop offset="0.333333" stop-color="#E58217"/>
<stop offset="0.5" stop-color="#DB6C15"/>
<stop offset="0.666667" stop-color="#CF5616"/>
<stop offset="0.833333" stop-color="#C33F17"/>
<stop offset="1" stop-color="#B52518"/>
</linearGradient>
<linearGradient id="paint1_linear_206_246" x1="9.57812" y1="0.75" x2="87.7499" y2="0.75" gradientUnits="userSpaceOnUse">
<stop stop-color="#F6AD25"/>
<stop offset="0.166667" stop-color="#EE971D"/>
<stop offset="0.333333" stop-color="#E58217"/>
<stop offset="0.5" stop-color="#DB6C15"/>
<stop offset="0.666667" stop-color="#CF5616"/>
<stop offset="0.833333" stop-color="#C33F17"/>
<stop offset="1" stop-color="#B52518"/>
</linearGradient>
</defs>
</svg>
