<svg width="88" height="82" viewBox="0 0 88 82" fill="none" xmlns="http://www.w3.org/2000/svg">
<path d="M75.25 34.875C75.2471 31.5206 74.3448 28.2284 72.6371 25.3412C70.9294 22.4541 68.4788 20.0776 65.5406 18.4594C67.7551 16.1495 68.9941 13.0749 69 9.875H62.75C62.7483 11.5321 62.0893 13.1208 60.9176 14.2926C59.7458 15.4643 58.1571 16.1233 56.5 16.125C51.5888 16.1315 46.8759 18.0634 43.3732 21.5059C39.8705 24.9485 37.8572 29.6271 37.7656 34.5375C33.759 30.4566 31.5099 24.969 31.5 19.25C31.4918 16.4863 30.5669 13.8034 28.8704 11.6216C27.1739 9.43989 24.8015 7.8826 22.125 7.19375V0.5H15.875V7.19375C13.1985 7.8826 10.8261 9.43989 9.12958 11.6216C7.43305 13.8034 6.50822 16.4863 6.5 19.25V34.875H0.25V38C0.25 49.6032 4.85936 60.7312 13.0641 68.9359C21.2688 77.1406 32.3968 81.75 44 81.75C55.6032 81.75 66.7312 77.1406 74.9359 68.9359C83.1406 60.7312 87.75 49.6032 87.75 38V34.875H75.25ZM56.5 22.375C59.8139 22.3791 62.991 23.6974 65.3343 26.0407C67.6776 28.384 68.9959 31.5611 69 34.875H44C44.0041 31.5611 45.3224 28.384 47.6657 26.0407C50.009 23.6974 53.1861 22.3791 56.5 22.375ZM12.75 19.25C12.75 17.5924 13.4085 16.0027 14.5806 14.8306C15.7527 13.6585 17.3424 13 19 13C20.6576 13 22.2473 13.6585 23.4194 14.8306C24.5915 16.0027 25.25 17.5924 25.25 19.25C25.2625 24.8176 26.9288 30.2561 30.0375 34.875H12.75V19.25ZM44 75.5C34.5985 75.4883 25.5433 71.9507 18.6238 65.586C11.7043 59.2214 7.42377 50.4928 6.62812 41.125H81.375C80.5793 50.4933 76.2984 59.2224 69.3782 65.5871C62.458 71.9518 53.4021 75.4891 44 75.5Z" fill="url(#paint0_linear_5_165)"/>
<defs>
<linearGradient id="paint0_linear_5_165" x1="0.25" y1="0.5" x2="87.75" y2="0.5" gradientUnits="userSpaceOnUse">
<stop stop-color="#F6AD25"/>
<stop offset="0.166667" stop-color="#EE971D"/>
<stop offset="0.333333" stop-color="#E58217"/>
<stop offset="0.5" stop-color="#DB6C15"/>
<stop offset="0.666667" stop-color="#CF5616"/>
<stop offset="0.833333" stop-color="#C33F17"/>
<stop offset="1" stop-color="#B52518"/>
</linearGradient>
</defs>
</svg>
