<svg width="28" height="28" viewBox="0 0 28 28" fill="none" xmlns="http://www.w3.org/2000/svg">
<path d="M21.1834 14.0038C21.1834 17.9789 17.9752 21.187 14 21.187C10.0248 21.187 6.81665 17.9789 6.81665 14.0038C6.81665 10.0287 10.0248 6.82054 14 6.82054C17.9752 6.82054 21.1834 10.0287 21.1834 14.0038ZM9.33135 14.0038C9.33135 16.5745 11.4293 18.6723 14 18.6723C16.5707 18.6723 18.6687 16.5745 18.6687 14.0038C18.6687 11.4331 16.5707 9.33519 14 9.33519C11.4293 9.33519 9.33135 11.4331 9.33135 14.0038ZM23.1517 6.52635C23.1517 7.45446 22.4022 8.20395 21.474 8.20395C20.5459 8.20395 19.7964 7.45446 19.7964 6.52635C19.7964 5.59824 20.5424 4.84874 21.474 4.84874C21.6944 4.84847 21.9127 4.89167 22.1164 4.97588C22.32 5.06009 22.5051 5.18365 22.6609 5.33949C22.8168 5.49532 22.9403 5.68037 23.0245 5.88403C23.1088 6.08769 23.152 6.30596 23.1517 6.52635ZM14 0.00156082C15.9333 0.00156074 17.8491 -0.0159526 19.7789 0.0926193C22.0204 0.201191 24.0098 0.712526 25.6489 2.3516C27.2915 3.99418 27.7993 5.97999 27.9079 8.22146C28.0165 10.1547 27.999 12.0705 27.999 14.0003C27.999 15.9335 28.0165 17.8493 27.9079 19.7791C27.7993 22.0205 27.288 24.0098 25.6489 25.6489C24.0063 27.2915 22.0204 27.7993 19.7789 27.9079C17.8456 28.0165 15.9298 27.999 14 27.999C12.0702 27.999 10.1509 28.0165 8.2211 27.9079C5.97958 27.7993 3.99024 27.288 2.35113 25.6489C0.708521 24.0063 0.200678 22.0205 0.0921036 19.7791C-0.0164685 17.8458 0.00104088 15.93 0.0010408 14.0003C0.00104072 12.067 -0.0164688 10.1512 0.0921031 8.22146C0.200677 5.97999 0.712022 3.99068 2.35113 2.3516C3.99374 0.709025 5.97958 0.201192 8.22109 0.0926198C10.1509 -0.0194542 12.0667 0.00156091 14 0.00156082ZM5.74142 3.08359C5.10399 3.33925 4.62767 3.64746 4.13734 4.14128C3.6435 4.63511 3.33529 5.10792 3.07962 5.74534C2.34763 7.58755 2.51224 11.9619 2.51224 14.0038C2.51224 16.0456 2.34763 20.4235 3.07612 22.2657C3.33179 22.9031 3.64 23.3794 4.13383 23.8697C4.62767 24.3636 5.10049 24.6718 5.73792 24.9274C7.58366 25.6559 11.9581 25.4913 14 25.4913C16.0419 25.4913 20.4198 25.6559 22.2621 24.9274C22.8995 24.6718 23.3758 24.3636 23.8662 23.8697C24.3565 23.3759 24.6682 22.9031 24.9239 22.2657C25.6524 20.4235 25.4878 16.0456 25.4878 14.0038C25.4878 11.9619 25.6524 7.58404 24.9239 5.74183C24.6682 5.10441 24.36 4.6281 23.8662 4.13778C23.3723 3.64395 22.8995 3.33575 22.2621 3.08008C20.4198 2.3516 16.0419 2.51621 14 2.51621C11.9581 2.51621 7.58366 2.35161 5.74142 3.08359Z" fill="#243E36"/>
</svg>
