<svg width="84" height="84" viewBox="0 0 84 84" fill="none" xmlns="http://www.w3.org/2000/svg">
<path d="M81.2084 40.2499L43.7084 2.74992C42.2084 1.24992 40.125 0.333252 37.8334 0.333252H8.66671C4.08337 0.333252 0.333374 4.08325 0.333374 8.66659V37.8333C0.333374 40.1249 1.25004 42.2083 2.79171 43.7499L40.2917 81.2499C41.7917 82.7499 43.875 83.6666 46.1667 83.6666C48.4584 83.6666 50.5417 82.7499 52.0417 81.2083L81.2084 52.0416C82.75 50.5416 83.6667 48.4583 83.6667 46.1666C83.6667 43.8749 82.7084 41.7499 81.2084 40.2499ZM46.1667 75.3749L8.66671 37.8333V8.66659H37.8334V8.62492L75.3334 46.1249L46.1667 75.3749Z" fill="url(#paint0_linear_206_247)"/>
<path d="M19.0834 25.3333C22.5352 25.3333 25.3334 22.535 25.3334 19.0833C25.3334 15.6315 22.5352 12.8333 19.0834 12.8333C15.6316 12.8333 12.8334 15.6315 12.8334 19.0833C12.8334 22.535 15.6316 25.3333 19.0834 25.3333Z" fill="url(#paint1_linear_206_247)"/>
<defs>
<linearGradient id="paint0_linear_206_247" x1="0.333374" y1="0.333252" x2="83.6667" y2="0.333252" gradientUnits="userSpaceOnUse">
<stop stop-color="#F6AD25"/>
<stop offset="0.166667" stop-color="#EE971D"/>
<stop offset="0.333333" stop-color="#E58217"/>
<stop offset="0.5" stop-color="#DB6C15"/>
<stop offset="0.666667" stop-color="#CF5616"/>
<stop offset="0.833333" stop-color="#C33F17"/>
<stop offset="1" stop-color="#B52518"/>
</linearGradient>
<linearGradient id="paint1_linear_206_247" x1="12.8334" y1="12.8333" x2="25.3334" y2="12.8333" gradientUnits="userSpaceOnUse">
<stop stop-color="#F6AD25"/>
<stop offset="0.166667" stop-color="#EE971D"/>
<stop offset="0.333333" stop-color="#E58217"/>
<stop offset="0.5" stop-color="#DB6C15"/>
<stop offset="0.666667" stop-color="#CF5616"/>
<stop offset="0.833333" stop-color="#C33F17"/>
<stop offset="1" stop-color="#B52518"/>
</linearGradient>
</defs>
</svg>
